# xmcd
#
# Track frame offsets: 
#        150
#        35752
#        72442
#        94227
#        111910
#        129400
#        145060
#        159937
#        175452
#        193765
#        214580
#        228317
#
# Disc length: 3233 seconds
#
# Revision: 2
# Processed by: cddbd v1.5.2PL0 Copyright (c) Steve Scherf et al.
# Submitted via: ExactAudioCopy v0.99pb5
#
DISCID=ac0c9f0c
DTITLE=Music Minded - The Harmonica Man
DYEAR=1994
DGENRE=Instrumental
TTITLE0=The Blues Brothers Medley
TTITLE1=Stevie Wonder Medley
TTITLE2=Once Upon A Time
TTITLE3=Orange Blossom Special
TTITLE4=Midnight Cowboy
TTITLE5=Bakerstreet
TTITLE6=Desperado
TTITLE7=She's Coming Back
TTITLE8=Misty
TTITLE9=Georgia
TTITLE10=Bridge Over Troubled Water
TTITLE11=Feel Like Makin' Love
EXTD=
EXTT0=
EXTT1=
EXTT2=
EXTT3=
EXTT4=
EXTT5=
EXTT6=
EXTT7=
EXTT8=
EXTT9=
EXTT10=
EXTT11=
PLAYORDER=
